<?xml version="1.0" encoding="utf-8"?>
<!-- Generator: Adobe Illustrator 26.0.2, SVG Export Plug-In . SVG Version: 6.00 Build 0)  -->
<svg version="1.1" id="Layer_1" xmlns="http://www.w3.org/2000/svg" xmlns:xlink="http://www.w3.org/1999/xlink" x="0px" y="0px"
	 viewBox="0 0 2205 512" style="enable-background:new 0 0 2205 512;" xml:space="preserve">
<style type="text/css">
	.st0{fill:#1C2D47;}
	.st1{fill:#2057A6;}
	.st2{fill:url(#SVGID_1_);}
	.st3{fill:url(#SVGID_00000057144939618554844510000012218882484502664630_);}
	.st4{fill:url(#SVGID_00000170277114329517716710000007789987697831270577_);}
	.st5{fill:url(#SVGID_00000101104736431552571820000009933216923661410189_);}
	.st6{fill:none;stroke:url(#SVGID_00000158027109732085350410000016739206585084206741_);stroke-width:2;stroke-miterlimit:10;}
	.st7{opacity:0.25;fill:url(#SVGID_00000183217848090990602230000012544293969739108509_);}
	.st8{opacity:0.25;fill:url(#SVGID_00000069371995878322797170000000686168404924997524_);}
	.st9{opacity:0.25;fill:url(#SVGID_00000028315384323583357200000007740316365585230250_);}
	.st10{fill:url(#SVGID_00000026135851037877804210000008092532337188844969_);}
	.st11{fill:url(#SVGID_00000137844560796276269610000005891372396009296777_);}
</style>
<g>
	<path class="st0" d="M562.03,418.84v7.56h12.19v7.03h-12.19v8.2h13.78v7.29h-22.88v-37.36h22.88v7.29H562.03z"/>
	<path class="st0" d="M636.53,448.91l-7.61-11.44l-6.71,11.44h-10.33l11.97-19l-12.24-18.36h10.59l7.5,11.28l6.6-11.28h10.32
		l-11.87,18.84l12.35,18.52H636.53z"/>
	<path class="st0" d="M710.61,429.51c-0.99,1.79-2.52,3.24-4.58,4.34s-4.61,1.65-7.66,1.65h-5.64v13.41h-9.1v-37.36h14.74
		c2.98,0,5.5,0.51,7.56,1.54c2.06,1.03,3.6,2.45,4.63,4.26c1.03,1.81,1.54,3.88,1.54,6.23C712.1,425.75,711.61,427.72,710.61,429.51
		z M701.57,427.04c0.85-0.82,1.28-1.97,1.28-3.46s-0.43-2.64-1.28-3.46s-2.15-1.22-3.88-1.22h-4.95v9.37h4.95
		C699.42,428.26,700.71,427.86,701.57,427.04z"/>
	<path class="st0" d="M757.87,418.84v7.56h12.19v7.03h-12.19v8.2h13.78v7.29h-22.88v-37.36h22.88v7.29H757.87z"/>
	<path class="st0" d="M828.54,448.91l-7.77-14.1h-2.18v14.1h-9.1v-37.36h15.27c2.94,0,5.46,0.51,7.53,1.54
		c2.08,1.03,3.63,2.44,4.66,4.23c1.03,1.79,1.54,3.79,1.54,5.99c0,2.48-0.7,4.7-2.1,6.65c-1.4,1.95-3.47,3.34-6.2,4.15l8.62,14.79
		H828.54z M818.59,428.37h5.64c1.67,0,2.92-0.41,3.75-1.22c0.83-0.82,1.25-1.97,1.25-3.46c0-1.42-0.42-2.54-1.25-3.35
		c-0.83-0.82-2.08-1.22-3.75-1.22h-5.64V428.37z"/>
	<path class="st0" d="M885.22,411.55v37.36h-9.1v-37.36H885.22z"/>
	<path class="st0" d="M932.85,418.84v7.56h12.19v7.03h-12.19v8.2h13.78v7.29h-22.88v-37.36h22.88v7.29H932.85z"/>
	<path class="st0" d="M1017.89,448.91h-9.1l-15.22-23.04v23.04h-9.1v-37.36h9.1l15.22,23.15v-23.15h9.1V448.91z"/>
	<path class="st0" d="M1057.28,420.31c1.6-2.89,3.82-5.14,6.68-6.76c2.86-1.61,6.09-2.42,9.71-2.42c4.43,0,8.23,1.17,11.39,3.51
		c3.16,2.34,5.27,5.53,6.33,9.58h-10c-0.75-1.56-1.8-2.75-3.17-3.57c-1.37-0.82-2.92-1.22-4.66-1.22c-2.8,0-5.07,0.98-6.81,2.93
		c-1.74,1.95-2.61,4.56-2.61,7.82c0,3.26,0.87,5.87,2.61,7.82c1.74,1.95,4.01,2.93,6.81,2.93c1.74,0,3.29-0.41,4.66-1.22
		c1.37-0.82,2.42-2,3.17-3.57h10c-1.06,4.04-3.17,7.23-6.33,9.55c-3.16,2.32-6.95,3.49-11.39,3.49c-3.62,0-6.86-0.81-9.71-2.42
		c-2.86-1.61-5.08-3.86-6.68-6.73s-2.4-6.16-2.4-9.85C1054.88,426.49,1055.68,423.2,1057.28,420.31z"/>
	<path class="st0" d="M1138.01,418.84v7.56h12.19v7.03h-12.19v8.2h13.78v7.29h-22.88v-37.36h22.88v7.29H1138.01z"/>
	<path class="st0" d="M1259.72,411.55v7.29h-9.9v30.07h-9.1v-30.07h-9.9v-7.29H1259.72z"/>
	<path class="st0" d="M1315.28,448.91l-7.77-14.1h-2.18v14.1h-9.1v-37.36h15.27c2.94,0,5.46,0.51,7.53,1.54
		c2.08,1.03,3.63,2.44,4.66,4.23c1.03,1.79,1.54,3.79,1.54,5.99c0,2.48-0.7,4.7-2.1,6.65c-1.4,1.95-3.47,3.34-6.2,4.15l8.62,14.79
		H1315.28z M1305.33,428.37h5.64c1.67,0,2.92-0.41,3.75-1.22c0.83-0.82,1.25-1.97,1.25-3.46c0-1.42-0.42-2.54-1.25-3.35
		c-0.83-0.82-2.08-1.22-3.75-1.22h-5.64V428.37z"/>
	<path class="st0" d="M1386.11,442.31h-13.94l-2.24,6.6h-9.53l13.52-37.36h10.54l13.52,37.36h-9.63L1386.11,442.31z M1383.77,435.29
		l-4.63-13.68l-4.58,13.68H1383.77z"/>
	<path class="st0" d="M1467.43,448.91h-9.1l-15.22-23.04v23.04h-9.1v-37.36h9.1l15.22,23.15v-23.15h9.1V448.91z"/>
	<path class="st0" d="M1512.13,447.96c-2.16-0.89-3.89-2.2-5.19-3.94c-1.3-1.74-1.98-3.83-2.05-6.28h9.69
		c0.14,1.38,0.62,2.44,1.44,3.17c0.82,0.73,1.88,1.09,3.19,1.09c1.35,0,2.41-0.31,3.19-0.93c0.78-0.62,1.17-1.48,1.17-2.58
		c0-0.92-0.31-1.68-0.93-2.29c-0.62-0.6-1.38-1.1-2.29-1.49c-0.91-0.39-2.19-0.83-3.86-1.33c-2.41-0.75-4.38-1.49-5.91-2.24
		c-1.53-0.75-2.84-1.84-3.94-3.3s-1.65-3.35-1.65-5.69c0-3.48,1.26-6.2,3.78-8.17c2.52-1.97,5.8-2.95,9.85-2.95
		c4.12,0,7.43,0.98,9.95,2.95c2.52,1.97,3.87,4.71,4.04,8.22h-9.85c-0.07-1.21-0.51-2.16-1.33-2.85c-0.82-0.69-1.86-1.04-3.14-1.04
		c-1.1,0-1.99,0.29-2.66,0.88c-0.67,0.59-1.01,1.43-1.01,2.53c0,1.21,0.57,2.15,1.7,2.82s2.91,1.4,5.32,2.18
		c2.41,0.82,4.37,1.6,5.88,2.34c1.51,0.75,2.81,1.83,3.91,3.25c1.1,1.42,1.65,3.25,1.65,5.48c0,2.13-0.54,4.06-1.62,5.8
		c-1.08,1.74-2.65,3.12-4.71,4.15c-2.06,1.03-4.49,1.54-7.29,1.54C1516.75,449.29,1514.3,448.84,1512.13,447.96z"/>
	<path class="st0" d="M1594.94,411.55v7.29h-15.22v7.88h11.39v7.08h-11.39v15.11h-9.1v-37.36H1594.94z"/>
	<path class="st0" d="M1639.67,446.84c-2.93-1.63-5.25-3.91-6.97-6.84s-2.58-6.22-2.58-9.87s0.86-6.94,2.58-9.85
		c1.72-2.91,4.04-5.18,6.97-6.81c2.93-1.63,6.15-2.45,9.66-2.45c3.51,0,6.73,0.82,9.66,2.45c2.93,1.63,5.23,3.9,6.92,6.81
		c1.68,2.91,2.53,6.19,2.53,9.85s-0.85,6.95-2.55,9.87c-1.7,2.93-4.01,5.21-6.92,6.84s-6.12,2.45-9.63,2.45
		C1645.82,449.29,1642.6,448.47,1639.67,446.84z M1656.49,438c1.79-1.99,2.69-4.61,2.69-7.88c0-3.3-0.9-5.93-2.69-7.9
		c-1.79-1.97-4.18-2.95-7.16-2.95c-3.02,0-5.42,0.98-7.21,2.93c-1.79,1.95-2.69,4.59-2.69,7.93c0,3.3,0.9,5.93,2.69,7.9
		c1.79,1.97,4.2,2.95,7.21,2.95C1652.31,440.98,1654.7,439.99,1656.49,438z"/>
	<path class="st0" d="M1724.47,448.91l-7.77-14.1h-2.18v14.1h-9.1v-37.36h15.27c2.94,0,5.46,0.51,7.53,1.54
		c2.08,1.03,3.63,2.44,4.66,4.23c1.03,1.79,1.54,3.79,1.54,5.99c0,2.48-0.7,4.7-2.1,6.65c-1.4,1.95-3.47,3.34-6.2,4.15l8.62,14.79
		H1724.47z M1714.52,428.37h5.64c1.67,0,2.92-0.41,3.75-1.22c0.83-0.82,1.25-1.97,1.25-3.46c0-1.42-0.42-2.54-1.25-3.35
		c-0.83-0.82-2.08-1.22-3.75-1.22h-5.64V428.37z"/>
	<path class="st0" d="M1814.36,411.55v37.36h-9.1v-22.41l-8.36,22.41h-7.34l-8.41-22.46v22.46h-9.1v-37.36h10.75l10.48,25.86
		l10.38-25.86H1814.36z"/>
	<path class="st0" d="M1876.09,442.31h-13.94l-2.24,6.6h-9.53l13.52-37.36h10.54l13.52,37.36h-9.63L1876.09,442.31z M1873.75,435.29
		l-4.63-13.68l-4.58,13.68H1873.75z"/>
	<path class="st0" d="M1950.87,411.55v7.29h-9.9v30.07h-9.1v-30.07h-9.9v-7.29H1950.87z"/>
	<path class="st0" d="M1996.47,411.55v37.36h-9.1v-37.36H1996.47z"/>
	<path class="st0" d="M2043.01,446.84c-2.93-1.63-5.25-3.91-6.97-6.84s-2.58-6.22-2.58-9.87s0.86-6.94,2.58-9.85
		c1.72-2.91,4.04-5.18,6.97-6.81c2.93-1.63,6.15-2.45,9.66-2.45c3.51,0,6.73,0.82,9.66,2.45c2.93,1.63,5.23,3.9,6.92,6.81
		c1.68,2.91,2.53,6.19,2.53,9.85s-0.85,6.95-2.55,9.87c-1.7,2.93-4.01,5.21-6.92,6.84s-6.12,2.45-9.63,2.45
		C2049.16,449.29,2045.94,448.47,2043.01,446.84z M2059.83,438c1.79-1.99,2.69-4.61,2.69-7.88c0-3.3-0.9-5.93-2.69-7.9
		c-1.79-1.97-4.18-2.95-7.16-2.95c-3.02,0-5.42,0.98-7.21,2.93c-1.79,1.95-2.69,4.59-2.69,7.93c0,3.3,0.9,5.93,2.69,7.9
		c1.79,1.97,4.2,2.95,7.21,2.95C2055.65,440.98,2058.04,439.99,2059.83,438z"/>
	<path class="st0" d="M2142.19,448.91h-9.1l-15.22-23.04v23.04h-9.1v-37.36h9.1l15.22,23.15v-23.15h9.1V448.91z"/>
</g>
<g>
	<path class="st1" d="M743.4,391.25h-51.08L587.33,260.56v130.69h-38.86V133.01h38.86v126.93l99.66-126.93h47.32L632.77,258.06
		L743.4,391.25z"/>
	<path class="st1" d="M765.02,391.25V133.01h157.01v36.04H803.88v83.99h103.73v35.73H803.88v102.48H765.02z"/>
	<path class="st1" d="M956.5,391.25V133.01h38.86v258.24H956.5z"/>
	<path class="st1" d="M1044.88,391.25V127.68l179.26,181.46c-0.21-13.16-0.42-25.86-0.63-38.08c-0.21-12.22-0.31-25.33-0.31-39.33
		v-98.72h37.92v264.82l-178.95-182.08c0.21,13.16,0.42,26.07,0.63,38.7c0.21,12.64,0.31,25.54,0.31,38.7v98.09H1044.88z"/>
	<path class="st1" d="M1364.86,391.25v-222.2h-74.59v-36.04h188.67v36.04h-74.9v222.2H1364.86z"/>
	<path class="st1" d="M1508.08,391.25V133.01h157.33v35.73h-117.84v73.33h98.09v35.1h-98.09v78.35h122.54v35.73H1508.08z"/>
	<path class="st1" d="M1823.36,396.27c-19.22,0-37.25-3.45-54.06-10.34c-16.82-6.89-31.5-16.35-44.03-28.36
		c-12.54-12.01-22.41-26.17-29.62-42.47c-7.21-16.3-10.81-33.95-10.81-52.96c0-19.01,3.6-36.67,10.81-52.96
		c7.21-16.3,17.08-30.45,29.62-42.47c12.54-12.01,27.21-21.41,44.03-28.21c16.82-6.79,34.94-10.19,54.37-10.19
		c18.38,0,34.68,2.51,48.89,7.52c14.21,5.01,25.8,10.55,34.79,16.61v44.5c-5.01-4.8-10.76-9.25-17.24-13.32
		c-6.48-4.07-13.37-7.57-20.68-10.5c-7.32-2.92-14.89-5.17-22.72-6.74s-15.62-2.35-23.35-2.35c-14.21,0-27.32,2.51-39.33,7.52
		c-12.02,5.01-22.36,11.96-31.03,20.84c-8.67,8.88-15.46,19.27-20.37,31.18c-4.91,11.91-7.36,24.76-7.36,38.55
		c0,13.79,2.45,26.64,7.36,38.55c4.91,11.91,11.7,22.31,20.37,31.18c8.67,8.88,19.01,15.83,31.03,20.84
		c12.01,5.01,25.12,7.52,39.33,7.52c15.88,0,31.29-3.03,46.23-9.09c14.94-6.06,27.53-13.89,37.76-23.5v44.5
		c-9.4,6.06-21.15,11.6-35.26,16.61C1857.99,393.76,1841.74,396.27,1823.36,396.27z"/>
	<path class="st1" d="M1950.59,391.25V133.01h38.86v108.75h126.93V133.01h38.86v258.24h-38.86V277.49h-126.93v113.76H1950.59z"/>
</g>
<g>
	<linearGradient id="SVGID_1_" gradientUnits="userSpaceOnUse" x1="442.4639" y1="440.0112" x2="520.5841" y2="440.0112">
		<stop  offset="0" style="stop-color:#0FD4D8"/>
		<stop  offset="0.2878" style="stop-color:#09B0B9"/>
		<stop  offset="0.566" style="stop-color:#0495A1"/>
		<stop  offset="0.8119" style="stop-color:#018593"/>
		<stop  offset="1" style="stop-color:#007F8E"/>
	</linearGradient>
	<path class="st2" d="M442.46,440.84l72.96-5.87l4.34,4.82c1.88,2.09,0.29,5.41-2.52,5.26L442.46,440.84z"/>
	<g>
		
			<linearGradient id="SVGID_00000022556450855151136800000009493813409396454582_" gradientUnits="userSpaceOnUse" x1="258.4671" y1="83.7184" x2="175.8351" y2="349.9772">
			<stop  offset="0" style="stop-color:#139FCE;stop-opacity:0.9"/>
			<stop  offset="0.3219" style="stop-color:#139CCB;stop-opacity:0.9322"/>
			<stop  offset="0.5804" style="stop-color:#1293C1;stop-opacity:0.958"/>
			<stop  offset="0.8161" style="stop-color:#1083B0;stop-opacity:0.9816"/>
			<stop  offset="1" style="stop-color:#0E719D"/>
		</linearGradient>
		<polygon style="fill:url(#SVGID_00000022556450855151136800000009493813409396454582_);" points="232.09,51.82 282.33,101.73 
			213.58,345.25 146.04,364.15 		"/>
		
			<linearGradient id="SVGID_00000141418752739913080360000013295663290093984146_" gradientUnits="userSpaceOnUse" x1="41.7422" y1="428.7227" x2="355.1519" y2="339.4178">
			<stop  offset="0" style="stop-color:#337FC9"/>
			<stop  offset="0.3501" style="stop-color:#317CC6"/>
			<stop  offset="0.6313" style="stop-color:#2D72BD"/>
			<stop  offset="0.8877" style="stop-color:#2561AF"/>
			<stop  offset="1" style="stop-color:#2057A6"/>
		</linearGradient>
		<polygon style="fill:url(#SVGID_00000141418752739913080360000013295663290093984146_);" points="50.04,457.83 65.65,386.7 
			316.49,316.33 370.92,370.13 		"/>
		
			<linearGradient id="SVGID_00000057135891450906375470000007186278425330467717_" gradientUnits="userSpaceOnUse" x1="489.6707" y1="444.9131" x2="262.9774" y2="218.2198">
			<stop  offset="0" style="stop-color:#0FD4D8"/>
			<stop  offset="0.2561" style="stop-color:#0ED1D5"/>
			<stop  offset="0.4617" style="stop-color:#0DC7CC"/>
			<stop  offset="0.6499" style="stop-color:#0AB6BE"/>
			<stop  offset="0.8265" style="stop-color:#069EA9"/>
			<stop  offset="0.9955" style="stop-color:#00808F"/>
			<stop  offset="1" style="stop-color:#007F8E"/>
		</linearGradient>
		<polygon style="fill:url(#SVGID_00000057135891450906375470000007186278425330467717_);" points="262.63,172.4 515.43,434.97 
			442.46,440.84 242.32,243.04 		"/>
		
			<linearGradient id="SVGID_00000169525532240555438320000001043574017113028761_" gradientUnits="userSpaceOnUse" x1="281.3195" y1="102.3311" x2="281.3195" y2="102.3311">
			<stop  offset="0" style="stop-color:#00AAF2"/>
			<stop  offset="1" style="stop-color:#64DCFC"/>
		</linearGradient>
		
			<path style="fill:none;stroke:url(#SVGID_00000169525532240555438320000001043574017113028761_);stroke-width:2;stroke-miterlimit:10;" d="
			M281.32,102.33"/>
		
			<linearGradient id="SVGID_00000073682130772119641150000012791269165296454035_" gradientUnits="userSpaceOnUse" x1="54.9131" y1="423.4969" x2="344.2856" y2="343.0716">
			<stop  offset="0" style="stop-color:#337FC9"/>
			<stop  offset="0.3003" style="stop-color:#3079C4"/>
			<stop  offset="0.6923" style="stop-color:#2869B6"/>
			<stop  offset="1" style="stop-color:#2057A6"/>
		</linearGradient>
		<polygon style="opacity:0.25;fill:url(#SVGID_00000073682130772119641150000012791269165296454035_);" points="65.65,386.7 
			316.49,316.33 370.92,370.13 		"/>
		
			<linearGradient id="SVGID_00000023261924767746276310000017374436292058144696_" gradientUnits="userSpaceOnUse" x1="253.5661" y1="67.5056" x2="179.4597" y2="356.062">
			<stop  offset="0" style="stop-color:#139FCE;stop-opacity:0.9"/>
			<stop  offset="0.2648" style="stop-color:#129AC8;stop-opacity:0.9265"/>
			<stop  offset="0.6111" style="stop-color:#118AB8;stop-opacity:0.9611"/>
			<stop  offset="1" style="stop-color:#0E719D"/>
		</linearGradient>
		<polygon style="opacity:0.25;fill:url(#SVGID_00000023261924767746276310000017374436292058144696_);" points="232.09,51.82 
			213.58,345.25 146.04,364.15 		"/>
		
			<linearGradient id="SVGID_00000065045250803836913390000014092553981103649952_" gradientUnits="userSpaceOnUse" x1="489.4603" y1="437.0592" x2="256.0699" y2="214.7074">
			<stop  offset="0" style="stop-color:#0FD4D8"/>
			<stop  offset="0.1881" style="stop-color:#0ECED3"/>
			<stop  offset="0.434" style="stop-color:#0BBEC5"/>
			<stop  offset="0.7122" style="stop-color:#06A3AD"/>
			<stop  offset="1" style="stop-color:#007F8E"/>
		</linearGradient>
		<polygon style="opacity:0.25;fill:url(#SVGID_00000065045250803836913390000014092553981103649952_);" points="262.63,172.4 
			442.46,440.84 242.32,243.04 		"/>
		
			<linearGradient id="SVGID_00000170957147561340447040000008267752083610848156_" gradientUnits="userSpaceOnUse" x1="235.4514" y1="47.4502" x2="282.7509" y2="101.4699">
			<stop  offset="0" style="stop-color:#0E719D"/>
			<stop  offset="0.3889" style="stop-color:#118AB8;stop-opacity:0.9611"/>
			<stop  offset="0.7352" style="stop-color:#129AC8;stop-opacity:0.9265"/>
			<stop  offset="1" style="stop-color:#139FCE;stop-opacity:0.9"/>
		</linearGradient>
		<path style="fill:url(#SVGID_00000170957147561340447040000008267752083610848156_);" d="M282.33,101.73L239.3,43.65
			c-1.6-2.16-5-1.45-5.6,1.17l-1.62,7L282.33,101.73z"/>
		
			<linearGradient id="SVGID_00000034069066037960980850000003658043830366630581_" gradientUnits="userSpaceOnUse" x1="39.5402" y1="423.4081" x2="65.6506" y2="423.4081">
			<stop  offset="0" style="stop-color:#337FC9"/>
			<stop  offset="0.3077" style="stop-color:#2B6DB9"/>
			<stop  offset="0.6997" style="stop-color:#235DAB"/>
			<stop  offset="1" style="stop-color:#2057A6"/>
		</linearGradient>
		<path style="fill:url(#SVGID_00000034069066037960980850000003658043830366630581_);" d="M65.65,386.7l-15.61,71.13l-6.34,2.11
			c-2.51,0.84-4.88-1.61-3.95-4.1L65.65,386.7z"/>
	</g>
</g>
</svg>
